<svg xmlns="http://www.w3.org/2000/svg" xmlns:xlink="http://www.w3.org/1999/xlink" width="90" height="90" fill="none" xmlns:v="https://vecta.io/nano"><g clip-path="url(#A)"><path d="M90 45c0 7.965-2.071 15.448-5.701 21.938-1.531 2.737-9.031-12.42-11.08-10.074-3.533 4.048-7.78 7.457-12.544 10.032-6.356 3.437-13.634 5.388-21.368 5.388s-9.319 15.765-15.675 12.329c-4.764-2.575-9.011-5.984-12.544-10.032-2.05-2.347-3.857-4.906-5.388-7.643C2.071 60.448 0 52.965 0 45s2.071-15.448 5.701-21.937C10.772 13.996 18.89 6.866 28.668 3.057 33.731 1.083 39.24 0 45 0s11.269 1.083 16.332 3.057c9.779 3.809 17.896 10.939 22.968 20.006C87.929 29.552 90 37.035 90 45z" fill="#dc4356"/><path d="M84.299 12.234v54.703C76.602 80.698 61.887 90 45 90H14.878a9.18 9.18 0 0 1-9.177-9.178V12.234a9.18 9.18 0 0 1 9.177-9.178h60.244a9.18 9.18 0 0 1 9.178 9.178z" fill="#d2d9f8"/><path d="M19.181 90h-4.304a9.18 9.18 0 0 1-9.176-9.176V12.236a9.18 9.18 0 0 1 9.176-9.178h4.304a9.18 9.18 0 0 0-9.178 9.178v68.588A9.18 9.18 0 0 0 19.181 90z" fill="#c3ccec"/><g fill="#e8ecfd"><path d="M78.912 12.235v13.681H11.088V12.235c0-2.09 1.699-3.791 3.789-3.791h60.245c2.09 0 3.789 1.7 3.789 3.791zm0 19.397v42.949a45.17 45.17 0 0 1-12.544 10.032h-51.49c-2.092 0-3.79-1.7-3.79-3.788V31.632h67.823z"/></g><path d="M45 82.857c13.482 0 24.411-10.929 24.411-24.411S58.482 34.036 45 34.036 20.589 44.965 20.589 58.447 31.518 82.857 45 82.857z" fill="#d2d9f8"/><path d="M64.029 58.447c0 10.508-8.519 19.029-19.029 19.029a18.97 18.97 0 0 1-14.01-6.154 19.03 19.03 0 0 0 3.947-6.567 18.13 18.13 0 0 0 .224-.686c.55-1.776.846-3.663.846-5.622a19.02 19.02 0 0 0-1.07-6.31c-.864-2.46-2.219-4.687-3.947-6.567A18.97 18.97 0 0 1 45 39.417c10.51 0 19.029 8.52 19.029 19.031z" fill="#50405a"/><path d="M56.877 58.447A11.88 11.88 0 0 1 45 70.322c-4.241 0-7.962-2.223-10.063-5.567a19 19 0 0 0 1.07-6.308 19.02 19.02 0 0 0-1.07-6.31c2.101-3.343 5.822-5.567 10.063-5.567a11.88 11.88 0 0 1 11.877 11.877z" fill="#362a40"/><path d="M64.029 58.447c0 10.508-8.519 19.029-19.029 19.029a18.97 18.97 0 0 1-14.01-6.154c1.727-1.88 3.083-4.107 3.947-6.567.079-.226.154-.456.224-.686 6.867.257 14.046-8.779 21.126-9.328 2.6-.203 5.188.74 7.741 3.706z" fill="#6a78d7"/><path d="M59.729 59.973c-.843 0-1.526-.683-1.526-1.526A13.22 13.22 0 0 0 45 45.244c-.843 0-1.526-.684-1.526-1.526s.683-1.526 1.526-1.526c8.963 0 16.255 7.292 16.255 16.255 0 .843-.683 1.526-1.526 1.526z" fill="#e8ecfd"/><path d="M56.877 58.447A11.88 11.88 0 0 1 45 70.322c-4.241 0-7.962-2.223-10.063-5.567a18.13 18.13 0 0 0 .224-.686c6.867.257 14.046-8.779 21.126-9.328.383 1.165.589 2.411.589 3.706z" fill="#545ec0"/><g fill="#d2d9f8"><use xlink:href="#B"/><path d="M31.421 23.106a5.86 5.86 0 0 0 5.859-5.859 5.86 5.86 0 0 0-5.859-5.859 5.86 5.86 0 0 0-5.859 5.859 5.86 5.86 0 0 0 5.859 5.859z"/></g><g fill="#c3ccec"><use xlink:href="#C"/><path d="M20.703 22.807a5.92 5.92 0 0 1-1.855.298 5.86 5.86 0 0 1-5.859-5.859 5.86 5.86 0 0 1 5.859-5.859 5.92 5.92 0 0 1 1.855.298c-2.327.776-4.006 2.972-4.006 5.561s1.679 4.785 4.006 5.561z"/></g><g fill="#6a78d7"><use xlink:href="#D"/><path d="M72.263 23.607h1.328c1.002 0 1.814-.812 1.814-1.814v-1.328c0-1.002-.812-1.814-1.814-1.814h-1.328c-1.002 0-1.814.812-1.814 1.814v1.328c0 1.002.812 1.814 1.814 1.814zm-7.238-7.265h1.328c1.002 0 1.814-.812 1.814-1.814V13.2c0-1.002-.812-1.814-1.814-1.814h-1.328c-1.002 0-1.814.812-1.814 1.814v1.328c0 1.002.812 1.814 1.814 1.814zm0 7.265h1.328c1.002 0 1.814-.812 1.814-1.814v-1.328c0-1.002-.812-1.814-1.814-1.814h-1.328c-1.002 0-1.814.812-1.814 1.814v1.328c0 1.002.812 1.814 1.814 1.814z"/></g><path d="M57.786 16.342h1.328c1.002 0 1.814-.812 1.814-1.814v-1.328c0-1.002-.812-1.814-1.814-1.814h-1.328c-1.002 0-1.814.812-1.814 1.814v1.328c0 1.002.812 1.814 1.814 1.814z" fill="#dc4356"/><path d="M57.786 23.607h1.328c1.002 0 1.814-.812 1.814-1.814v-1.328c0-1.002-.812-1.814-1.814-1.814h-1.328c-1.002 0-1.814.812-1.814 1.814v1.328c0 1.002.812 1.814 1.814 1.814z" fill="#6a78d7"/><path d="M44.93 66.661h-.396c-1.14 0-2.063-.924-2.063-2.063v-.396c0-.852-.655-1.584-1.505-1.624a1.58 1.58 0 0 0-1.658 1.58v.44c0 1.14-.924 2.063-2.063 2.063h-.396c-.852 0-1.585.655-1.625 1.505a1.58 1.58 0 0 0 1.58 1.658h.44c1.14 0 2.063.924 2.063 2.063v.395c0 .852.655 1.585 1.505 1.625a1.58 1.58 0 0 0 1.658-1.58v-.44c0-1.14.924-2.063 2.063-2.063h.44a1.58 1.58 0 0 0 1.58-1.658c-.04-.851-.773-1.505-1.625-1.505z" fill="#e8ecfd"/><path d="M50.896 23.607h-8.367a2.26 2.26 0 0 1-2.257-2.257v-7.705a2.26 2.26 0 0 1 2.257-2.257h8.367a2.26 2.26 0 0 1 2.257 2.257v7.705a2.26 2.26 0 0 1-2.257 2.257z" fill="#77c378"/><path d="M49.637 14.903v5.189h-5.851v-5.189h5.851z" fill="#5fa158"/></g><defs><clipPath id="A"><path fill="#fff" d="M0 0h90v90H0z"/></clipPath><path id="B" d="M18.848 23.106a5.86 5.86 0 0 0 5.859-5.859 5.86 5.86 0 0 0-5.859-5.859 5.86 5.86 0 0 0-5.859 5.859 5.86 5.86 0 0 0 5.859 5.859z"/><path id="C" d="M33.276 22.807a5.92 5.92 0 0 1-1.855.298 5.86 5.86 0 0 1-5.859-5.859 5.86 5.86 0 0 1 5.859-5.859 5.92 5.92 0 0 1 1.855.298c-2.327.776-4.006 2.972-4.006 5.561s1.679 4.785 4.006 5.561z"/><path id="D" d="M72.263 16.342h1.328c1.002 0 1.814-.812 1.814-1.814v-1.328c0-1.002-.812-1.814-1.814-1.814h-1.328c-1.002 0-1.814.812-1.814 1.814v1.328c0 1.002.812 1.814 1.814 1.814z"/></defs></svg>