<svg aria-hidden="true" style="position: absolute; width: 0; height: 0; overflow: hidden;" version="1.1" xmlns="http://www.w3.org/2000/svg" xmlns:xlink="http://www.w3.org/1999/xlink">
<defs>
<symbol id="minutes" viewBox="0 0 32 32">
<path d="M16 0c-8.823 0-16 7.178-16 16s7.177 16 16 16 16-7.177 16-16-7.177-16-16-16zM16 30.836c-8.18 0-14.836-6.656-14.836-14.836s6.656-14.836 14.836-14.836 14.836 6.655 14.836 14.836-6.655 14.836-14.836 14.836zM16 3.767c-6.615 0-12.007 5.281-12.213 11.847-0.006 0.032-0.019 0.062-0.019 0.096 0 0.020 0.009 0.038 0.012 0.058-0.002 0.078-0.012 0.153-0.012 0.231 0 6.745 5.487 12.233 12.233 12.233s12.232-5.488 12.232-12.233-5.487-12.233-12.233-12.233zM24.055 23.568l-1.405-1.36c-0.104-0.102-0.247-0.164-0.404-0.164-0.164 0-0.312 0.068-0.418 0.178l-0 0c-0.224 0.231-0.218 0.599 0.014 0.823l1.375 1.331c-1.773 1.539-4.065 2.523-6.582 2.662l-0.028 0.001v-1.775c0-0.321-0.26-0.582-0.582-0.582s-0.582 0.261-0.582 0.582v1.778c-2.557-0.129-4.862-1.112-6.659-2.666l0.014 0.012 1.111-1.148c0.224-0.231 0.218-0.599-0.013-0.823s-0.6-0.218-0.823 0.013l-1.115 1.152c-1.807-1.916-2.936-4.47-3.011-7.287h2.057c0.321 0 0.582-0.26 0.582-0.582s-0.26-0.582-0.582-0.582h-2.028c0.185-2.325 1.066-4.414 2.433-6.092l-0.016 0.020 1.487 1.439c0.113 0.109 0.259 0.163 0.404 0.163 0 0 0.001 0 0.001 0 0.164 0 0.312-0.068 0.417-0.177l0-0c0.223-0.231 0.218-0.599-0.014-0.823l-1.52-1.472c1.881-1.886 4.441-3.086 7.274-3.228v1.731c0 0.322 0.26 0.582 0.582 0.582s0.582-0.26 0.582-0.582v-1.728c2.591 0.143 4.921 1.162 6.721 2.763l-0.011-0.010-1.326 1.37c-0.224 0.231-0.218 0.599 0.014 0.823 0.104 0.102 0.247 0.164 0.404 0.164 0.164 0 0.312-0.068 0.418-0.178l0-0 1.319-1.362c1.625 1.77 2.681 4.062 2.88 6.598h-1.98c-0.322 0-0.582 0.26-0.582 0.582s0.26 0.582 0.582 0.582h2.009c-0.074 2.811-1.199 5.36-2.998 7.275zM18.146 13.007c-1.198 0-2.174 0.975-2.174 2.174v2.122c0.001 1.2 0.974 2.173 2.174 2.174h0c1.2-0.001 2.173-0.974 2.174-2.174v-2.122c0-1.198-0.975-2.174-2.174-2.174zM19.156 17.303c-0.001 0.557-0.452 1.009-1.010 1.010h-0c-0.557-0.001-1.009-0.452-1.010-1.010v-2.122c0-0.558 0.452-1.010 1.010-1.010h0c0.558 0.001 1.009 0.453 1.010 1.010v2.122zM13.37 15.129h-1.010v-0.436c0-1.059 0.861-1.92 1.92-1.92 0.322 0 0.582-0.261 0.582-0.582s-0.26-0.582-0.582-0.582c-1.702 0.003-3.081 1.382-3.084 3.084v2.61c0 0.644 0.283 1.251 0.777 1.666 0.395 0.331 0.89 0.508 1.401 0.508 0.128 0 0.257-0.011 0.386-0.034 0.876-0.154 1.596-0.874 1.75-1.751 0.022-0.116 0.034-0.25 0.034-0.386 0-0.535-0.192-1.024-0.512-1.403l0.003 0.003c-0.4-0.476-0.996-0.777-1.662-0.777-0.001 0-0.002 0-0.003 0h0zM14.364 17.491c-0.083 0.407-0.398 0.723-0.799 0.805l-0.007 0.001c-0.056 0.011-0.121 0.017-0.187 0.017-0.248 0-0.476-0.089-0.652-0.238l0.002 0.001c-0.23-0.193-0.361-0.475-0.361-0.774v-1.010h1.010c0.002 0 0.003 0 0.005 0 0.556 0 1.007 0.451 1.007 1.007 0 0.067-0.007 0.133-0.019 0.197l0.001-0.006z"></path>
</symbol>
<symbol id="guarantee" viewBox="0 0 32 32">
<path d="M11.759 13.688h-0.156v-2.343c0-0.417-0.507-0.625-0.8-0.331l-0.625 0.625c-0.085 0.085-0.138 0.202-0.138 0.331s0.053 0.247 0.138 0.331v0c0.132 0.132 0.323 0.168 0.488 0.111v1.277h-0.156c-0.259 0-0.469 0.21-0.469 0.469s0.21 0.469 0.469 0.469h1.25c0.259 0 0.469-0.21 0.469-0.469s-0.21-0.469-0.469-0.469v0z"></path>
<path d="M14.169 10.876c-0.776 0.001-1.405 0.63-1.406 1.406v0.937c0.001 0.776 0.63 1.405 1.406 1.406h0c0.776-0.001 1.405-0.63 1.406-1.406v-0.937c-0.001-0.776-0.63-1.405-1.406-1.406h-0zM14.637 13.219c0 0.258-0.21 0.469-0.469 0.469s-0.469-0.21-0.469-0.469v-0.937c0-0.258 0.21-0.469 0.469-0.469s0.469 0.21 0.469 0.469v0.937z"></path>
<path d="M17.517 10.876c-0.776 0.001-1.405 0.63-1.406 1.406v0.937c0.001 0.776 0.63 1.405 1.406 1.406h0c0.776-0.001 1.405-0.63 1.406-1.406v-0.937c-0.001-0.776-0.63-1.405-1.406-1.406h-0zM17.986 13.219c0 0.258-0.21 0.469-0.469 0.469s-0.469-0.21-0.469-0.469v-0.937c0-0.258 0.21-0.469 0.469-0.469s0.469 0.21 0.469 0.469v0.937z"></path>
<path d="M19.929 11.812c0.259 0 0.469-0.21 0.469-0.469s-0.21-0.469-0.469-0.469v0c-0.259 0-0.469 0.21-0.469 0.469s0.21 0.469 0.469 0.469v0zM21.719 10.934c-0.066-0.037-0.144-0.059-0.228-0.059-0.175 0-0.328 0.096-0.408 0.239l-0.001 0.002-1.562 2.812c-0.037 0.066-0.059 0.144-0.059 0.228 0 0.175 0.096 0.328 0.239 0.408l0.002 0.001c0.225 0.125 0.511 0.045 0.638-0.182l1.562-2.812c0.126-0.226 0.044-0.511-0.182-0.638zM21.491 13.687c-0.259 0-0.469 0.21-0.469 0.469s0.21 0.469 0.469 0.469v0c0.259 0 0.469-0.21 0.469-0.469s-0.21-0.469-0.469-0.469v0zM0.469 17.407c0 0 0.001 0 0.001 0 0.258 0 0.468-0.209 0.468-0.468 0-0 0-0.001 0-0.001v0c0-0.258 0.21-0.469 0.469-0.469h29.187c0.258 0 0.469 0.21 0.469 0.469s0.21 0.469 0.469 0.469 0.469-0.21 0.469-0.469v0c-0.001-0.776-0.63-1.405-1.406-1.407h-0.45c-0.081-0.216-0.208-0.399-0.369-0.543l-0.001-0.001-1.585-1.411 0.925-1.91c0.085-0.172 0.135-0.376 0.135-0.59 0-0.59-0.376-1.092-0.901-1.28l-0.009-0.003-2.005-0.697 0.124-2.118c0.001-0.023 0.002-0.050 0.002-0.077 0-0.75-0.608-1.359-1.359-1.359-0.027 0-0.054 0.001-0.080 0.002l0.004-0-2.118 0.124-0.697-2.005c-0.191-0.535-0.693-0.911-1.283-0.911-0.215 0-0.418 0.050-0.598 0.138l0.008-0.004-1.91 0.925-1.411-1.585c-0.54-0.607-1.488-0.606-2.027 0l-1.411 1.585-1.91-0.925c-0.172-0.085-0.376-0.135-0.59-0.135-0.59 0-1.092 0.376-1.28 0.901l-0.003 0.010-0.697 2.005-2.118-0.124c-0.023-0.001-0.050-0.002-0.077-0.002-0.75 0-1.359 0.608-1.359 1.359 0 0.027 0.001 0.054 0.002 0.080l-0-0.004 0.124 2.118-2.004 0.697c-0.535 0.191-0.911 0.693-0.911 1.283 0 0.215 0.050 0.418 0.138 0.598l-0.004-0.008 0.925 1.91-1.585 1.411c-0.168 0.15-0.294 0.338-0.371 0.544h-0.45c-0.777 0.001-1.406 0.63-1.407 1.407v0c0 0 0 0.001 0 0.001 0 0.258 0.209 0.468 0.468 0.468 0 0 0.001 0 0.001 0h-0zM4.7 14.041c0.097-0.086 0.157-0.211 0.157-0.35 0-0.074-0.017-0.145-0.048-0.207l0.001 0.003-1.079-2.229c-0.027-0.053-0.042-0.116-0.042-0.183 0-0.182 0.116-0.337 0.279-0.395l0.003-0.001 2.339-0.813c0.185-0.065 0.315-0.238 0.315-0.442 0-0.010-0-0.020-0.001-0.029l0 0.001-0.144-2.472c-0-0.008-0.001-0.016-0.001-0.025 0-0.231 0.187-0.418 0.418-0.418 0.009 0 0.017 0 0.026 0.001l-0.001-0 2.472 0.144c0.008 0.001 0.018 0.001 0.028 0.001 0.204 0 0.377-0.13 0.441-0.312l0.001-0.003 0.813-2.339c0.058-0.165 0.213-0.282 0.396-0.282 0.067 0 0.13 0.016 0.185 0.043l-0.002-0.001 2.229 1.079c0.189 0.091 0.415 0.046 0.554-0.11l1.646-1.85c0.077-0.087 0.189-0.141 0.313-0.141s0.236 0.054 0.313 0.14l0 0 1.646 1.85c0.086 0.097 0.211 0.157 0.35 0.157 0.074 0 0.145-0.017 0.207-0.048l-0.003 0.001 2.229-1.079c0.053-0.027 0.116-0.042 0.183-0.042 0.182 0 0.337 0.116 0.395 0.279l0.001 0.003 0.813 2.339c0.069 0.198 0.261 0.326 0.47 0.314l2.472-0.144c0.007-0 0.016-0.001 0.025-0.001 0.231 0 0.418 0.187 0.418 0.418 0 0.009-0 0.018-0.001 0.027l0-0.001-0.144 2.472c-0.001 0.008-0.001 0.018-0.001 0.028 0 0.204 0.13 0.377 0.312 0.441l0.003 0.001 2.339 0.813c0.165 0.058 0.282 0.213 0.282 0.396 0 0.067-0.016 0.13-0.043 0.185l0.001-0.002-1.079 2.229c-0.030 0.060-0.047 0.13-0.047 0.204 0 0.139 0.061 0.264 0.157 0.349l0 0 1.675 1.491h-21.414c0.241-4.408 3.897-7.983 8.439-7.983h0.003c3.963 0 7.439 2.813 8.264 6.689 0.046 0.215 0.239 0.371 0.458 0.371 0 0 0.001 0 0.002 0 0.034 0 0.067-0.004 0.099-0.011l-0.003 0.001c0.253-0.054 0.415-0.303 0.361-0.556-0.906-4.253-4.687-7.431-9.184-7.431-5.012 0-9.134 3.952-9.378 8.921h-3.597l1.675-1.491zM31.531 20.219c-0 0-0.001 0-0.001 0-0.258 0-0.468 0.209-0.468 0.468 0 0 0 0.001 0 0.001v-0c0 0.258-0.21 0.469-0.469 0.469h-29.188c-0.258 0-0.469-0.21-0.469-0.469s-0.21-0.469-0.469-0.469-0.469 0.21-0.469 0.469v0c0.001 0.776 0.63 1.405 1.406 1.406h3.604l0.666 0.666-0.132 2.262c-0.001 0.023-0.002 0.050-0.002 0.076 0 0.75 0.608 1.359 1.359 1.359 0.027 0 0.054-0.001 0.080-0.002l-0.004 0 2.118-0.124 0.697 2.005c0.191 0.535 0.693 0.911 1.283 0.911 0.215 0 0.418-0.050 0.598-0.138l-0.008 0.004 1.91-0.925 1.411 1.585c0.25 0.279 0.611 0.454 1.013 0.454s0.764-0.175 1.012-0.452l0.001-0.001 1.411-1.585 1.91 0.925c0.172 0.085 0.375 0.135 0.59 0.135 0.59 0 1.092-0.376 1.28-0.901l0.003-0.009 0.697-2.005 2.118 0.124c0.023 0.001 0.050 0.002 0.076 0.002 0.75 0 1.359-0.608 1.359-1.359 0-0.027-0.001-0.054-0.002-0.080l0 0.004-0.132-2.262 0.667-0.666h3.604c0.777-0.001 1.406-0.63 1.407-1.406v-0c0-0 0-0.001 0-0.001 0-0.258-0.209-0.468-0.468-0.468-0 0-0.001 0-0.001 0h0zM25.376 22.605l0.144 2.472c0 0.008 0.001 0.016 0.001 0.025 0 0.231-0.187 0.418-0.418 0.418-0.009 0-0.018-0-0.027-0.001l0.001 0-2.472-0.144c-0.008-0.001-0.018-0.001-0.028-0.001-0.204 0-0.377 0.13-0.441 0.312l-0.001 0.003-0.813 2.339c-0.058 0.165-0.213 0.282-0.396 0.282-0.067 0-0.13-0.016-0.185-0.043l0.002 0.001-2.229-1.079c-0.060-0.030-0.13-0.047-0.204-0.047-0.139 0-0.264 0.061-0.349 0.157l-0 0-1.646 1.85c-0.077 0.087-0.189 0.141-0.313 0.141s-0.236-0.054-0.313-0.14l-0-0-1.646-1.85c-0.139-0.157-0.366-0.201-0.554-0.11l-2.229 1.079c-0.053 0.027-0.116 0.042-0.183 0.042-0.182 0-0.337-0.116-0.395-0.279l-0.001-0.003-0.813-2.339c-0.065-0.185-0.238-0.315-0.442-0.315-0.010 0-0.020 0-0.029 0.001l0.001-0-2.472 0.144c-0.007 0-0.016 0.001-0.025 0.001-0.231 0-0.418-0.187-0.418-0.418 0-0.009 0-0.018 0.001-0.027l-0 0.001 0.144-2.472c0.001-0.008 0.001-0.018 0.001-0.028 0-0.129-0.052-0.246-0.137-0.331v0l-0.152-0.152h15.514c-1.569 1.509-3.65 2.358-5.85 2.358-1.948 0-3.78-0.647-5.298-1.871-0.080-0.065-0.183-0.105-0.295-0.105-0.147 0-0.278 0.068-0.364 0.174l-0.001 0.001c-0.162 0.201-0.13 0.497 0.070 0.659 1.591 1.295 3.642 2.079 5.877 2.079 0.003 0 0.006 0 0.009 0h-0l0.001-0.003 0.001 0.003c0.001 0 0.002 0 0.002 0 2.851 0 5.405-1.273 7.123-3.283l0.011-0.013h2.527l-0.152 0.152c-0.085 0.085-0.137 0.202-0.137 0.331 0 0.010 0 0.019 0.001 0.029l-0-0.001zM2.741 17.875h0.344c0.259 0 0.469-0.21 0.469-0.469s-0.21-0.469-0.469-0.469h-0.344c-1.034 0-1.875 0.841-1.875 1.875s0.841 1.875 1.875 1.875c0.002 0 0.004 0 0.006 0 0.516 0 0.983-0.21 1.32-0.549l0-0c0.354-0.354 0.549-0.825 0.549-1.326 0-0 0-0.001 0-0.001 0-0.258-0.209-0.468-0.468-0.468-0 0-0.001 0-0.001 0h-0.813c-0.259 0-0.469 0.21-0.469 0.469s0.21 0.469 0.469 0.469h0.218c-0.043 0.074-0.093 0.137-0.149 0.194v0c-0.169 0.17-0.402 0.275-0.66 0.275-0.001 0-0.002 0-0.003 0h0c-0.517 0-0.937-0.42-0.937-0.937s0.42-0.937 0.937-0.937zM5.458 16.938c-0 0-0.001 0-0.001 0-0.258 0-0.468 0.209-0.468 0.468 0 0 0 0.001 0 0.001v-0 1.697c0 0.873 0.715 1.584 1.594 1.584s1.594-0.71 1.594-1.584v-1.697c0-0.259-0.21-0.469-0.469-0.469s-0.469 0.21-0.469 0.469v0 1.697c0 0.356-0.294 0.647-0.656 0.647s-0.656-0.29-0.656-0.647v-1.697c0-0 0-0.001 0-0.001 0-0.258-0.209-0.468-0.468-0.468-0 0-0.001 0-0.001 0h0zM9.927 16.938c-0 0-0 0-0.001 0-0.199 0-0.37 0.125-0.437 0.301l-0.001 0.003-1.055 2.812c-0.019 0.049-0.030 0.106-0.030 0.165 0 0.2 0.125 0.37 0.301 0.437l0.003 0.001c0.242 0.091 0.512-0.032 0.604-0.274l0.062-0.164h1.108l0.062 0.164c0.071 0.173 0.239 0.293 0.435 0.293 0.259 0 0.469-0.21 0.469-0.469 0-0.055-0.010-0.108-0.027-0.157l0.001 0.003-1.055-2.812c-0.068-0.179-0.239-0.304-0.438-0.304-0 0-0 0-0.001 0h0zM9.725 19.281l0.202-0.54 0.202 0.54h-0.405zM14.763 18.344c0-0.775-0.627-1.406-1.398-1.406h-0.914c-0 0-0.001 0-0.001 0-0.258 0-0.468 0.209-0.468 0.468 0 0 0 0.001 0 0.001v-0 2.812c0 0.259 0.21 0.469 0.469 0.469s0.469-0.21 0.469-0.469v0-0.469h0.25l0.792 0.799c0.085 0.086 0.203 0.139 0.333 0.139 0.259 0 0.469-0.21 0.469-0.469 0-0.129-0.052-0.245-0.136-0.33l0 0-0.42-0.423c0.339-0.26 0.556-0.665 0.556-1.121 0-0 0-0 0-0.001v0zM13.365 18.813h-0.446v-0.937h0.446c0.254 0 0.461 0.21 0.461 0.469s-0.207 0.469-0.461 0.469zM16.754 16.938c-0 0-0 0-0.001 0-0.199 0-0.37 0.125-0.437 0.301l-0.001 0.003-1.055 2.812c-0.019 0.049-0.030 0.106-0.030 0.165 0 0.2 0.125 0.37 0.301 0.437l0.003 0.001c0.242 0.091 0.512-0.032 0.604-0.274l0.062-0.164h1.108l0.062 0.164c0.069 0.179 0.239 0.304 0.439 0.304 0.259 0 0.469-0.21 0.469-0.469 0-0.059-0.011-0.116-0.031-0.168l0.001 0.003-1.055-2.812c-0.068-0.179-0.239-0.304-0.438-0.304-0 0-0 0-0.001 0h0zM16.552 19.281l0.202-0.54 0.202 0.54h-0.405zM20.809 17.407v1.38l-1.215-1.658c-0.086-0.118-0.224-0.194-0.379-0.194-0.258 0-0.468 0.209-0.468 0.468 0 0.001 0 0.002 0 0.003v-0 2.812c0 0.259 0.21 0.469 0.469 0.469s0.469-0.21 0.469-0.469v-1.38l1.215 1.658c0.266 0.362 0.847 0.178 0.847-0.277v-2.812c0-0.259-0.21-0.469-0.469-0.469s-0.469 0.21-0.469 0.469v0zM23.545 20.687c0 0 0.001 0 0.001 0 0.258 0 0.468-0.209 0.468-0.468 0-0 0-0.001 0-0.001v0-2.343h0.594c0.259 0 0.469-0.21 0.469-0.469s-0.21-0.469-0.469-0.469h-2.125c-0.259 0-0.469 0.21-0.469 0.469s0.21 0.469 0.469 0.469h0.594v2.343c0 0 0 0.001 0 0.001 0 0.258 0.209 0.468 0.468 0.468 0 0 0.001 0 0.001 0h-0z"></path>
<path d="M27.257 17.875c0.259 0 0.469-0.21 0.469-0.469s-0.21-0.469-0.469-0.469v0h-1.437c-0 0-0.001 0-0.001 0-0.258 0-0.468 0.209-0.468 0.468 0 0 0 0.001 0 0.001v-0 2.812c0 0 0 0.001 0 0.001 0 0.258 0.209 0.468 0.468 0.468 0 0 0.001 0 0.001 0h1.437c0.259 0 0.469-0.21 0.469-0.469s-0.21-0.469-0.469-0.469v0h-0.969v-0.469h0.594c0.259 0 0.469-0.21 0.469-0.469s-0.21-0.469-0.469-0.469v0h-0.594v-0.469h0.969z"></path>
<path d="M30.165 17.875c0.259 0 0.469-0.21 0.469-0.469s-0.21-0.469-0.469-0.469v0h-1.437c-0 0-0.001 0-0.001 0-0.258 0-0.468 0.209-0.468 0.468 0 0 0 0.001 0 0.001v-0 2.812c0 0 0 0.001 0 0.001 0 0.258 0.209 0.468 0.468 0.468 0 0 0.001 0 0.001 0h1.437c0.259 0 0.469-0.21 0.469-0.469s-0.21-0.469-0.469-0.469v0h-0.969v-0.469h0.594c0.259 0 0.469-0.21 0.469-0.469s-0.21-0.469-0.469-0.469v0h-0.594v-0.469h0.969z"></path>
</symbol>
<symbol id="instagram" viewBox="0 0 32 32">
<path  d="M2.001 2.177c-2.515 2.612-2.001 5.387-2.001 13.816 0 7-1.222 14.017 5.171 15.669 1.996 0.513 19.681 0.513 21.675-0.002 2.662-0.686 4.826-2.846 5.122-6.61 0.042-0.525 0.042-17.58-0.001-18.116-0.314-4.009-2.783-6.321-6.035-6.788-0.746-0.107-0.895-0.139-4.718-0.146-13.565 0.007-16.537-0.597-19.213 2.177z"></path>
<path fill="#fff" style="fill: var(--color2, #fff)" d="M15.998 4.185c-4.842 0-9.439-0.43-11.194 4.076-0.725 1.862-0.62 4.279-0.62 7.74 0 3.038-0.097 5.892 0.62 7.738 1.752 4.51 6.387 4.077 11.192 4.077 4.636 0 9.416 0.483 11.193-4.077 0.727-1.88 0.62-4.262 0.62-7.738 0-4.616 0.255-7.596-1.984-9.833-2.266-2.266-5.332-1.983-9.832-1.983h0.006zM14.94 6.315c10.099-0.015 11.384-1.139 10.675 14.457-0.252 5.516-4.452 4.91-9.614 4.91-9.414 0-9.684-0.269-9.684-9.686 0-9.527 0.747-9.676 8.625-9.684v0.002zM22.304 8.276c-0.782 0-1.418 0.634-1.418 1.417s0.634 1.417 1.418 1.417 1.417-0.634 1.417-1.417-0.634-1.417-1.417-1.417zM15.998 9.933c-3.35 0.001-6.066 2.717-6.067 6.068v0c0.001 3.35 2.717 6.066 6.067 6.067h0c3.35-0.002 6.064-2.717 6.066-6.067v-0c-0.001-3.35-2.716-6.066-6.065-6.068h-0zM15.998 12.063c5.207 0 5.214 7.878 0 7.878-5.205 0-5.214-7.878 0-7.878z"></path>
</symbol>
<symbol id="interactive" viewBox="0 0 32 32">
<path d="M6.194 3.097c-1.708 0-3.097 1.389-3.097 3.097s1.389 3.097 3.097 3.097 3.097-1.389 3.097-3.097-1.389-3.097-3.097-3.097zM6.194 8.258c-1.139 0-2.065-0.926-2.065-2.065s0.926-2.065 2.065-2.065 2.065 0.926 2.065 2.065-0.926 2.065-2.065 2.065z"></path>
<path d="M30.452 16.516c-0.668 0.002-1.235 0.427-1.45 1.021l-0.003 0.011h-1.127v-4.129h-1.032v4.129h-1.033v-2.065h-1.032v2.065h-1.032v-3.097h-1.033v3.097h-0.313l-4.839-4.494c0.318-0.478 0.508-1.066 0.508-1.698 0-0 0-0.001 0-0.001v0c0-0.846-0.342-1.613-0.893-2.172l3.186-3.505h1.346c0.26 2.604 2.463 4.645 5.135 4.645 2.849-0.004 5.158-2.312 5.162-5.161v-0c-0.004-2.849-2.312-5.158-5.161-5.162h-0c-2.672 0-4.875 2.041-5.135 4.645h-1.803l-3.574 3.931c-0.396-0.2-0.864-0.318-1.359-0.318h-0c-0.015 0-0.030 0.002-0.045 0.002l-0.572-2.582h-1.963v-0.889l-1.384-0.461c-0.028-0.072-0.058-0.144-0.090-0.215l0.653-1.305-1.986-1.986-1.305 0.653c-0.042-0.020-0.113-0.051-0.186-0.079l-0.030-0.011-0.461-1.384h-2.809l-0.461 1.384c-0.11 0.042-0.181 0.072-0.252 0.104l0.036-0.014-1.305-0.652-1.986 1.986 0.653 1.305c-0.021 0.043-0.051 0.114-0.079 0.186l-0.010 0.030-1.385 0.46v2.809l1.384 0.461c0.028 0.073 0.058 0.144 0.090 0.216l-0.653 1.305 1.986 1.986 1.305-0.653c0.037 0.018 0.108 0.049 0.179 0.077l0.036 0.013 0.462 1.384h2.809l0.461-1.384c0.072-0.028 0.143-0.058 0.215-0.090l1.306 0.653 1.986-1.986-0.653-1.305c0.032-0.072 0.062-0.143 0.090-0.216l1.385-0.461v-0.889h1.134l0.386 1.739c-1.186 0.435-2.036 1.571-2.036 2.906 0 0.852 0.353 1.639 0.938 2.211l-2.757 3.982h-0.762v-3.097h-1.032v3.097h-1.032v-4.129h-1.033v4.129h-1.034v-2.065h-1.032v2.065h-1.127c-0.218-0.605-0.786-1.030-1.453-1.032h-0c-0.854 0.002-1.546 0.694-1.548 1.549v0c0.002 0.854 0.694 1.546 1.548 1.548h0c0.668-0.002 1.235-0.427 1.45-1.021l0.003-0.011h7.591l2.826-4.083v10.574c-0.097-0.1-0.166-0.227-0.192-0.37l-0.001-0.004-0.925-5.085h-1.37c-0.906 0.001-1.641 0.735-1.642 1.642v0.33c0 0.095 0.008 0.189 0.023 0.28l-0.001-0.010 0.929 5.571c0.073 0.434 0.256 0.845 0.531 1.188l1.276 1.595c0.211 0.263 0.339 0.601 0.339 0.968v0.824h8.259v-0.825c0-0.35 0.12-0.693 0.339-0.968l1.159-1.45c0.352-0.437 0.565-0.999 0.566-1.611v-5.47c-0.002-0.854-0.694-1.546-1.548-1.548h-0c-0.204 0-0.397 0.042-0.576 0.114-0.178-0.658-0.775-1.146-1.489-1.146-0.182 0-0.354 0.037-0.516 0.095v-0.095c-0.002-0.854-0.694-1.546-1.548-1.548h-0c-0.182 0-0.354 0.037-0.516 0.095v-3.613c0.127-0.075 0.236-0.149 0.339-0.229l-0.007 0.005 5.142 4.775h7.007c0.218 0.605 0.786 1.030 1.453 1.032h0c0.854-0.002 1.546-0.694 1.548-1.548v-0c-0.002-0.854-0.694-1.546-1.548-1.548h-0zM22.71 5.161c0-0.567 0.115-1.109 0.323-1.601l0.906 0.523c-0.124 0.32-0.196 0.69-0.197 1.078v0c0.001 0.387 0.073 0.758 0.204 1.099l-0.007-0.021-0.906 0.523c-0.208-0.492-0.323-1.034-0.323-1.601zM26.839 3.097c1.139 0 2.065 0.926 2.065 2.065s-0.926 2.065-2.065 2.065-2.065-0.926-2.065-2.065 0.926-2.065 2.065-2.065zM30.968 5.161c0 0.001 0 0.003 0 0.004 0 0.577-0.119 1.126-0.333 1.624l0.010-0.027-0.906-0.523c0.124-0.32 0.196-0.69 0.197-1.078v-0c-0.001-0.387-0.073-0.758-0.204-1.099l0.007 0.021 0.906-0.523c0.204 0.471 0.323 1.020 0.323 1.597 0 0.001 0 0.003 0 0.004v-0zM23.555 7.653l0.899-0.519c0.464 0.56 1.122 0.951 1.869 1.077v1.043c-1.127-0.142-2.112-0.739-2.768-1.601zM27.355 9.254v-1.043c0.747-0.126 1.405-0.517 1.869-1.077l0.899 0.519c-0.656 0.862-1.641 1.459-2.768 1.601zM30.123 2.668l-0.899 0.519c-0.464-0.559-1.122-0.95-1.869-1.077v-1.042c1.127 0.142 2.112 0.739 2.768 1.601zM26.323 1.067v1.043c-0.747 0.126-1.405 0.517-1.869 1.077l-0.899-0.519c0.656-0.862 1.641-1.459 2.768-1.601zM11.355 6.854l-1.161 0.387-0.081 0.246c-0.073 0.22-0.153 0.406-0.245 0.583l0.011-0.022-0.117 0.232 0.548 1.097-0.934 0.934-1.097-0.548-0.231 0.117c-0.188 0.094-0.377 0.173-0.562 0.234l-0.246 0.081-0.387 1.161h-1.321l-0.387-1.161-0.246-0.081c-0.185-0.061-0.374-0.14-0.562-0.234l-0.231-0.117-1.097 0.548-0.934-0.934 0.548-1.097-0.117-0.231c-0.094-0.186-0.172-0.375-0.234-0.561l-0.081-0.246-1.161-0.387v-1.321l1.161-0.387 0.081-0.246c0.061-0.187 0.14-0.375 0.234-0.561l0.117-0.231-0.549-1.097 0.934-0.934 1.097 0.548 0.232-0.117c0.154-0.080 0.34-0.159 0.531-0.225l0.030-0.009 0.246-0.081 0.387-1.161h1.321l0.387 1.161 0.246 0.081c0.187 0.061 0.375 0.14 0.561 0.234l0.231 0.117 1.097-0.548 0.934 0.934-0.548 1.097 0.117 0.232c0.094 0.186 0.172 0.375 0.234 0.561l0.081 0.246 1.161 0.387v1.319h-0.002zM1.548 18.581c-0.285-0.001-0.516-0.231-0.516-0.516v-0c0.001-0.285 0.231-0.516 0.516-0.516h0c0.285 0.001 0.516 0.231 0.516 0.516v0c-0.001 0.285-0.231 0.516-0.516 0.516h-0zM14.967 9.291c1.139 0 2.065 0.926 2.065 2.065-0 0.533-0.203 1.018-0.534 1.384l0.002-0.002c-0.084-0.775-0.735-1.382-1.532-1.382s-1.449 0.609-1.532 1.385c-0.336-0.372-0.533-0.861-0.533-1.385 0-1.139 0.926-2.065 2.065-2.065zM17.032 18.581c0.285 0.001 0.516 0.231 0.516 0.516v6.194h1.033v-4.645c0.001-0.285 0.231-0.516 0.516-0.516h0c0.285 0.001 0.516 0.231 0.516 0.516v4.645h1.032v-3.613c0.001-0.285 0.231-0.516 0.516-0.516h0c0.285 0.001 0.516 0.231 0.516 0.516v5.469c0 0.35-0.12 0.693-0.339 0.968l-1.159 1.45c-0.309 0.385-0.512 0.867-0.556 1.395l-0.001 0.009h-6.212c-0.042-0.51-0.236-1.002-0.557-1.404l-1.276-1.595c-0.165-0.206-0.275-0.452-0.318-0.713l-0.929-5.573c-0.005-0.034-0.008-0.067-0.008-0.1v-0.33c0-0.336 0.273-0.609 0.609-0.609h0.508l0.771 4.238c0.152 0.834 0.877 1.439 1.725 1.439h0.516v-13.419c0.001-0.285 0.231-0.516 0.516-0.516h0c0.285 0.001 0.516 0.231 0.516 0.516v12.387h1.032v-6.194c0.001-0.285 0.231-0.516 0.516-0.516h0zM30.451 18.581c-0.285-0.001-0.516-0.231-0.516-0.516v-0c0.001-0.285 0.231-0.516 0.516-0.516h0c0.285 0.001 0.516 0.231 0.516 0.516v0c-0.001 0.285-0.231 0.516-0.516 0.516h-0z"></path>
</symbol>
<symbol id="logo" viewBox="0 0 32 32">
<path fill="#dc4356" style="fill: var(--color3, #dc4356)" d="M32 16c0 2.832-0.736 5.493-2.027 7.8-0.544 0.973-3.211-4.416-3.94-3.582-1.256 1.439-2.766 2.651-4.46 3.567-2.26 1.222-4.848 1.916-7.598 1.916s-3.313 5.605-5.573 4.384c-1.694-0.916-3.204-2.128-4.46-3.567-0.729-0.834-1.371-1.744-1.916-2.718-1.29-2.308-2.027-4.968-2.027-7.8s0.736-5.493 2.027-7.8c1.803-3.224 4.689-5.759 8.166-7.113 1.8-0.702 3.759-1.087 5.807-1.087s4.007 0.385 5.807 1.087c3.477 1.354 6.363 3.889 8.166 7.113 1.29 2.307 2.027 4.968 2.027 7.8z"></path>
<path fill="#d2d9f8" style="fill: var(--color4, #d2d9f8)" d="M29.973 4.35v19.45c-2.737 4.893-7.969 8.2-13.973 8.2h-10.71c-1.802-0.001-3.263-1.461-3.263-3.263v-24.387c0-1.802 1.461-3.263 3.263-3.263h21.42c1.802 0 3.263 1.461 3.263 3.263v0z"></path>
<path fill="#c3ccec" style="fill: var(--color5, #c3ccec)" d="M6.82 32h-1.53c-1.802-0.001-3.262-1.461-3.263-3.262v-24.387c0-1.802 1.461-3.262 3.262-3.263h1.53c-1.802 0-3.263 1.461-3.263 3.263v24.387c0.001 1.802 1.461 3.262 3.263 3.263h0z"></path>
<path fill="#e8ecfd" style="fill: var(--color6, #e8ecfd)" d="M28.058 4.35v4.864h-24.115v-4.864c0-0.743 0.604-1.348 1.347-1.348h21.42c0.743 0 1.347 0.604 1.347 1.348zM28.058 11.247v15.271c-1.249 1.426-2.724 2.617-4.377 3.525l-0.083 0.042h-18.308c-0.744 0-1.348-0.604-1.348-1.347v-17.491h24.115z"></path>
<path fill="#d2d9f8" style="fill: var(--color4, #d2d9f8)" d="M16 29.46c4.794 0 8.679-3.886 8.679-8.679s-3.886-8.679-8.679-8.679-8.679 3.886-8.679 8.679 3.886 8.679 8.679 8.679z"></path>
<path fill="#50405a" style="fill: var(--color7, #50405a)" d="M22.766 20.781c0 3.736-3.029 6.766-6.766 6.766-0.003 0-0.005 0-0.008 0-1.966 0-3.736-0.841-4.968-2.183l-0.004-0.005c0.602-0.652 1.079-1.43 1.389-2.288l0.015-0.047c0.015-0.035 0.042-0.116 0.067-0.198l0.012-0.046c0.196-0.631 0.301-1.302 0.301-1.999 0-0.002 0-0.005 0-0.007 0-0.801-0.139-1.57-0.395-2.283l0.015 0.047c-0.307-0.875-0.789-1.666-1.403-2.335 1.237-1.347 3.007-2.188 4.973-2.188 0.003 0 0.006 0 0.009 0h-0.001c3.737 0 6.766 3.029 6.766 6.767z"></path>
<path fill="#362a40" style="fill: var(--color8, #362a40)" d="M20.223 20.781c-0.001 2.332-1.891 4.222-4.223 4.222h-0c-1.508 0-2.831-0.79-3.578-1.979 0.241-0.666 0.38-1.434 0.38-2.235 0-0.003 0-0.005 0-0.008v0c0-0.002 0-0.005 0-0.007 0-0.801-0.139-1.57-0.395-2.283l0.015 0.047c0.747-1.189 2.070-1.979 3.578-1.979 2.332 0.001 4.222 1.891 4.223 4.223v0z"></path>
<path fill="#6a78d7" style="fill: var(--color9, #6a78d7)" d="M22.766 20.781c0 3.736-3.029 6.766-6.766 6.766-0.003 0-0.005 0-0.008 0-1.966 0-3.736-0.841-4.968-2.183l-0.004-0.005c0.614-0.668 1.096-1.46 1.403-2.335 0.028-0.080 0.055-0.162 0.080-0.244 2.442 0.091 4.994-3.121 7.511-3.317 0.924-0.072 1.845 0.263 2.752 1.318z"></path>
<path fill="#e8ecfd" style="fill: var(--color6, #e8ecfd)" d="M21.237 21.324c-0.3 0-0.543-0.243-0.543-0.543-0.003-2.591-2.103-4.691-4.694-4.694h-0c-0.3 0-0.543-0.243-0.543-0.543s0.243-0.543 0.543-0.543c3.187 0 5.78 2.593 5.78 5.78 0 0.3-0.243 0.543-0.543 0.543z"></path>
<path fill="#545ec0" style="fill: var(--color10, #545ec0)" d="M20.223 20.781c-0.001 2.332-1.891 4.222-4.223 4.222h-0c-1.508 0-2.831-0.79-3.578-1.979 0.015-0.035 0.042-0.116 0.067-0.198l0.012-0.046c2.442 0.091 4.994-3.121 7.511-3.317 0.136 0.414 0.209 0.857 0.209 1.318z"></path>
<path fill="#d2d9f8" style="fill: var(--color4, #d2d9f8)" d="M6.702 8.215c1.15-0 2.083-0.933 2.083-2.083v-0c-0-1.15-0.933-2.083-2.083-2.083h-0c-1.15 0-2.083 0.933-2.083 2.083v0c0 1.15 0.933 2.083 2.083 2.083h0z"></path>
<path fill="#d2d9f8" style="fill: var(--color4, #d2d9f8)" d="M11.172 8.215c1.15-0 2.083-0.933 2.083-2.083v-0c-0-1.15-0.933-2.083-2.083-2.083h-0c-1.15 0-2.083 0.933-2.083 2.083v0c0 1.15 0.933 2.083 2.083 2.083h0z"></path>
<path fill="#c3ccec" style="fill: var(--color5, #c3ccec)" d="M11.831 8.109c-0.197 0.067-0.424 0.106-0.659 0.106-0 0-0 0-0 0v0c-1.15-0-2.083-0.933-2.083-2.083v-0c0-1.15 0.933-2.083 2.083-2.083h0c0 0 0 0 0 0 0.236 0 0.463 0.039 0.674 0.11l-0.015-0.004c-0.827 0.276-1.424 1.057-1.424 1.977s0.597 1.701 1.424 1.977z"></path>
<path fill="#c3ccec" style="fill: var(--color5, #c3ccec)" d="M7.361 8.109c-0.197 0.067-0.424 0.106-0.659 0.106-0 0-0 0-0 0v0c-1.15-0-2.083-0.933-2.083-2.083v-0c0-1.15 0.933-2.083 2.083-2.083h0c0 0 0 0 0 0 0.236 0 0.463 0.039 0.674 0.11l-0.015-0.004c-0.827 0.276-1.424 1.057-1.424 1.977s0.597 1.701 1.424 1.977z"></path>
<path fill="#6a78d7" style="fill: var(--color9, #6a78d7)" d="M25.694 5.811h0.472c0.356 0 0.645-0.289 0.645-0.645v-0.472c0-0.356-0.289-0.645-0.645-0.645h-0.472c-0.356 0-0.645 0.289-0.645 0.645v0.472c0 0.356 0.289 0.645 0.645 0.645z"></path>
<path fill="#6a78d7" style="fill: var(--color9, #6a78d7)" d="M25.694 8.394h0.472c0.356 0 0.645-0.289 0.645-0.645v-0.472c0-0.356-0.289-0.645-0.645-0.645h-0.472c-0.356 0-0.645 0.289-0.645 0.645v0.472c0 0.356 0.289 0.645 0.645 0.645zM23.12 5.811h0.472c0.356 0 0.645-0.289 0.645-0.645v-0.472c0-0.356-0.289-0.645-0.645-0.645h-0.472c-0.356 0-0.645 0.289-0.645 0.645v0.472c0 0.356 0.289 0.645 0.645 0.645zM23.12 8.394h0.472c0.356 0 0.645-0.289 0.645-0.645v-0.472c0-0.356-0.289-0.645-0.645-0.645h-0.472c-0.356 0-0.645 0.289-0.645 0.645v0.472c0 0.356 0.289 0.645 0.645 0.645z"></path>
<path fill="#dc4356" style="fill: var(--color3, #dc4356)" d="M20.546 5.811h0.472c0.356 0 0.645-0.289 0.645-0.645v-0.472c0-0.356-0.289-0.645-0.645-0.645h-0.472c-0.356 0-0.645 0.289-0.645 0.645v0.472c0 0.356 0.289 0.645 0.645 0.645z"></path>
<path fill="#6a78d7" style="fill: var(--color9, #6a78d7)" d="M20.546 8.394h0.472c0.356 0 0.645-0.289 0.645-0.645v-0.472c0-0.356-0.289-0.645-0.645-0.645h-0.472c-0.356 0-0.645 0.289-0.645 0.645v0.472c0 0.356 0.289 0.645 0.645 0.645z"></path>
<path fill="#e8ecfd" style="fill: var(--color6, #e8ecfd)" d="M15.975 23.702h-0.141c-0.405 0-0.733-0.329-0.733-0.733v-0.141c0-0.303-0.233-0.563-0.535-0.577-0.008-0-0.018-0.001-0.028-0.001-0.31 0-0.562 0.252-0.562 0.562 0 0 0 0 0 0.001v-0 0.156c0 0.405-0.329 0.733-0.733 0.733h-0.141c-0.303 0-0.564 0.233-0.578 0.535-0 0.008-0.001 0.018-0.001 0.028 0 0.31 0.252 0.562 0.562 0.562 0 0 0 0 0.001 0h0.156c0.405 0 0.733 0.329 0.733 0.733v0.14c0 0.303 0.233 0.564 0.535 0.578 0.008 0 0.018 0.001 0.028 0.001 0.31 0 0.562-0.252 0.562-0.562 0-0 0-0 0-0.001v0-0.156c0-0.405 0.329-0.733 0.733-0.733h0.156c0 0 0 0 0.001 0 0.31 0 0.562-0.252 0.562-0.562 0-0.010-0-0.019-0.001-0.029l0 0.001c-0.014-0.303-0.275-0.535-0.578-0.535z"></path>
<path fill="#77c378" style="fill: var(--color11, #77c378)" d="M18.096 8.394h-2.975c-0.443-0.001-0.802-0.36-0.803-0.802v-2.74c0.001-0.443 0.36-0.802 0.802-0.803h2.975c0.443 0.001 0.802 0.36 0.802 0.802v2.74c-0.001 0.443-0.36 0.802-0.802 0.803h-0z"></path>
<path fill="#5fa158" style="fill: var(--color12, #5fa158)" d="M17.649 5.299v1.845h-2.080v-1.845h2.080z"></path>
</symbol>
<symbol id="quality" viewBox="0 0 32 32">
<path d="M16 1c-8.285 0.001-15 6.718-15 15.003 0 2.835 0.786 5.485 2.152 7.747l-0.038-0.067c-0.068 0.083-0.108 0.186-0.114 0.293-0 0.007-0.001 0.016-0.001 0.025 0 0.103 0.031 0.2 0.085 0.279l-0.001-0.002 0.566 0.85-2.407 1.444c-0.086 0.053-0.154 0.128-0.196 0.218l-0.001 0.003c-0.029 0.061-0.045 0.132-0.045 0.207 0 0.030 0.003 0.060 0.008 0.089l-0-0.003c0.018 0.103 0.066 0.193 0.135 0.264l-0-0c0.069 0.070 0.157 0.12 0.257 0.141l0.003 0.001 2.075 0.415-0.139 2.567c-0 0.008-0.001 0.017-0.001 0.027 0 0.086 0.022 0.167 0.060 0.237l-0.001-0.003c0.043 0.080 0.106 0.147 0.184 0.194 0.074 0.045 0.163 0.072 0.258 0.072s0.184-0.026 0.259-0.072l-0.002 0.001 3.819-2.294c2.287 1.483 5.084 2.365 8.086 2.365s5.799-0.882 8.145-2.4l-0.059 0.036 3.819 2.294c0.073 0.044 0.162 0.071 0.257 0.071 0.191 0 0.356-0.106 0.441-0.263l0.001-0.003c0.037-0.068 0.058-0.149 0.058-0.235 0-0.009-0-0.019-0.001-0.028l0 0.001-0.139-2.567 2.075-0.415c0.099-0.020 0.19-0.069 0.26-0.141 0.068-0.070 0.116-0.16 0.134-0.26l0-0.003c0.017-0.099 0.004-0.202-0.038-0.293-0.043-0.093-0.111-0.168-0.195-0.22l-0.002-0.001-2.407-1.444 0.566-0.85c0.053-0.078 0.084-0.173 0.084-0.276 0-0.009-0-0.019-0.001-0.028l0 0.001c-0.006-0.107-0.045-0.21-0.114-0.293 1.328-2.194 2.114-4.845 2.114-7.679 0-8.285-6.715-15.001-15-15.003h-0zM5.648 23.524c3.027-1.486 6.587-2.356 10.351-2.356 0 0 0.001 0 0.001 0h-0c3.764 0 7.325 0.869 10.493 2.418l-0.141-0.062 1.413 0.678-1.443 2.164c-3.031-1.414-6.58-2.239-10.322-2.239-0 0-0 0-0 0v0c-3.561 0-7.081 0.763-10.322 2.238l-1.443-2.164 1.413-0.678zM16 20.168c-2.825 0.004-5.628 0.485-8.292 1.423-1.069-1.559-1.708-3.488-1.708-5.565 0-0.009 0-0.018 0-0.028v0.001c0-5.514 4.486-10 10-10s10 4.486 10 10c0 0.007 0 0.016 0 0.024 0 2.078-0.638 4.006-1.73 5.6l0.022-0.034c-2.469-0.897-5.319-1.418-8.29-1.422h-0.002zM19.461 25.383c-1.029 0.391-2.218 0.617-3.461 0.617s-2.432-0.226-3.53-0.64l0.069 0.023c1.040-0.162 2.24-0.255 3.461-0.255s2.421 0.093 3.592 0.272l-0.131-0.016zM4.388 29.586l0.111-2.059c0-0.008 0.001-0.017 0.001-0.027 0-0.116-0.039-0.223-0.106-0.308l0.001 0.001c-0.074-0.095-0.179-0.161-0.297-0.184l-1.232-0.246 1.339-0.804 0.878 1.318c0.067 0.1 0.167 0.173 0.283 0.205s0.239 0.021 0.348-0.030c0.198-0.102 0.532-0.255 0.871-0.399l0.145-0.055 0.563 0.844-2.906 1.745zM8.455 27.794c-0.011-0.025-0.024-0.049-0.039-0.072l-0.733-1.1c0.848-0.328 1.894-0.645 2.968-0.89l0.162-0.031c1.501 0.818 3.288 1.299 5.187 1.299s3.686-0.481 5.245-1.328l-0.058 0.029c1.236 0.276 2.282 0.593 3.296 0.976l-0.166-0.055-0.733 1.1c-0.014 0.020-0.027 0.044-0.038 0.069l-0.001 0.003c-2.134 1.383-4.744 2.205-7.545 2.205s-5.41-0.822-7.6-2.238l0.055 0.033v0.001zM29.133 26.763l-1.232 0.246c-0.118 0.023-0.223 0.089-0.297 0.184-0.065 0.084-0.105 0.191-0.105 0.307 0 0.009 0 0.019 0.001 0.028l-0-0.001 0.111 2.059-2.905-1.745 0.563-0.844c0.496 0.205 0.83 0.357 1.161 0.517l-0.145-0.063c0.109 0.052 0.232 0.062 0.348 0.031 0.119-0.034 0.217-0.106 0.282-0.203l0.001-0.002 0.878-1.318 1.339 0.803zM28.004 23.207l-1.22-0.586c-0.352-0.179-0.856-0.404-1.37-0.613l-0.163-0.058c1.096-1.673 1.748-3.723 1.748-5.925 0-0.009 0-0.017-0-0.026v0.001c0-6.066-4.934-11-11-11s-11 4.934-11 11c-0 0.008-0 0.018-0 0.028 0 2.201 0.652 4.25 1.772 5.964l-0.026-0.042c-0.518 0.207-1.029 0.43-1.531 0.671l-1.22 0.585c-1.253-2.056-1.995-4.543-1.995-7.203 0-7.732 6.268-14 14-14 0 0 0 0 0 0v0c7.732 0 14 6.268 14 14 0 2.66-0.742 5.148-2.031 7.266l0.035-0.062h-0.001zM20.75 12h-2.75c-0.276-0.001-0.499-0.224-0.5-0.5v-1.5c-0.001-0.398-0.158-0.779-0.44-1.060s-0.662-0.439-1.060-0.44h-1c-0.276 0.001-0.499 0.224-0.5 0.5v1.102c0.001 0.378-0.073 0.752-0.218 1.101s-0.357 0.666-0.625 0.932l-0.365 0.365h-2.793c-0.276 0.001-0.499 0.224-0.5 0.5v5.5c0.001 0.276 0.224 0.5 0.5 0.5h8.75c0 0 0 0 0 0 0.212 0 0.413-0.053 0.588-0.147l-0.007 0.003c0.182-0.097 0.332-0.231 0.445-0.393l0.003-0.004c0.115-0.166 0.188-0.359 0.212-0.56s-0.001-0.405-0.073-0.594c0.244-0.154 0.426-0.388 0.517-0.661 0.041-0.118 0.064-0.254 0.064-0.395 0-0.16-0.030-0.312-0.085-0.453l0.003 0.008c0.352-0.225 0.582-0.613 0.582-1.055 0-0.16-0.030-0.313-0.085-0.453l0.003 0.008c0.229-0.145 0.404-0.36 0.5-0.613s0.107-0.531 0.031-0.791c-0.079-0.267-0.237-0.49-0.446-0.649l-0.003-0.002c-0.217-0.163-0.48-0.251-0.75-0.251zM11 13.5h2v4.5h-2v-4.5zM20.75 13.5h-0.5c-0.138 0-0.263 0.056-0.354 0.147v0c-0.094 0.094-0.146 0.221-0.146 0.354 0.001 0.276 0.224 0.499 0.5 0.5h0c0.138 0 0.25 0.112 0.25 0.25v0c-0 0.138-0.112 0.25-0.25 0.25h-0.5c-0.138 0-0.263 0.056-0.354 0.147v0c-0.094 0.094-0.146 0.221-0.146 0.354 0.001 0.276 0.224 0.499 0.5 0.5h0c0.138 0 0.25 0.112 0.25 0.25v0c-0 0.138-0.112 0.25-0.25 0.25h-0.5c-0.138 0-0.263 0.056-0.354 0.147v0c-0.094 0.094-0.146 0.221-0.146 0.354 0.001 0.276 0.224 0.499 0.5 0.5h0c0.138 0 0.25 0.112 0.25 0.25v0c-0 0.138-0.112 0.25-0.25 0.25h-5.251v-4.793l0.365-0.365c0.701-0.698 1.135-1.663 1.135-2.73 0-0.004 0-0.007 0-0.011v0.001-0.602h0.5c0.276 0.001 0.5 0.224 0.5 0.5v1.5c0.001 0.398 0.158 0.779 0.44 1.060s0.662 0.439 1.060 0.44h2.75c0.138 0 0.25 0.112 0.25 0.25v0c-0 0.138-0.112 0.25-0.25 0.25h-0zM14.963 22.513l0.462 0.336-0.177 0.544c-0.006 0.018-0.010 0.039-0.010 0.060 0 0.103 0.084 0.187 0.187 0.187 0.042 0 0.081-0.014 0.112-0.038l-0 0 0.462-0.336 0.462 0.336c0.031 0.023 0.070 0.037 0.112 0.037 0.103 0 0.187-0.084 0.187-0.187 0-0.022-0.004-0.042-0.010-0.061l0 0.001-0.177-0.544 0.462-0.336c0.032-0.023 0.056-0.056 0.068-0.094 0.006-0.017 0.009-0.038 0.009-0.059 0-0.103-0.084-0.187-0.187-0.187-0 0-0.001 0-0.001 0h-0.572l-0.177-0.544c-0.012-0.038-0.036-0.070-0.068-0.094s-0.070-0.036-0.11-0.036c-0 0-0 0-0.001 0-0.041 0-0.079 0.013-0.11 0.036l0.001-0c-0.033 0.023-0.056 0.056-0.068 0.094l-0.177 0.544h-0.572c-0 0-0.001 0-0.001 0-0.103 0-0.187 0.084-0.187 0.187 0 0.021 0.003 0.041 0.010 0.060l-0-0.001c0.013 0.039 0.037 0.071 0.068 0.093l0.001 0zM12.078 22.874l0.462 0.336-0.177 0.544c-0.006 0.017-0.009 0.038-0.009 0.059 0 0.103 0.084 0.187 0.187 0.187 0 0 0.001 0 0.001 0h-0c0 0 0 0 0.001 0 0.041 0 0.079-0.013 0.11-0.036l-0.001 0 0.462-0.336 0.462 0.336c0.031 0.023 0.069 0.036 0.111 0.036 0.083 0 0.153-0.054 0.178-0.129l0-0.001c0.006-0.017 0.009-0.037 0.009-0.058s-0.003-0.041-0.010-0.059l0 0.001-0.177-0.544 0.462-0.336c0.047-0.034 0.078-0.089 0.078-0.151 0-0.021-0.003-0.041-0.010-0.059l0 0.001c-0.025-0.076-0.095-0.13-0.178-0.13-0 0-0 0-0 0h-0.572l-0.177-0.544c-0.024-0.076-0.095-0.131-0.178-0.131s-0.154 0.054-0.178 0.13l-0 0.001-0.177 0.544h-0.572c-0.041 0-0.080 0.014-0.111 0.036l0.001-0c-0.047 0.034-0.078 0.089-0.078 0.151 0 0.021 0.003 0.041 0.010 0.059l-0-0.001c0.012 0.037 0.036 0.070 0.068 0.094zM17.849 22.874l0.462 0.336-0.177 0.544c-0.006 0.018-0.010 0.039-0.010 0.060 0 0.103 0.084 0.187 0.187 0.187 0.042 0 0.081-0.014 0.112-0.038l-0 0 0.462-0.336 0.462 0.336c0.031 0.023 0.070 0.037 0.112 0.037 0.103 0 0.187-0.084 0.187-0.187 0-0.022-0.004-0.042-0.010-0.061l0 0.001-0.177-0.544 0.462-0.336c0.047-0.034 0.078-0.089 0.078-0.152s-0.030-0.117-0.077-0.151l-0.001-0c-0.032-0.023-0.070-0.036-0.11-0.036h-0.572l-0.177-0.544c-0.025-0.076-0.095-0.13-0.178-0.13-0.042 0-0.080 0.014-0.111 0.037l0-0c-0.032 0.023-0.056 0.056-0.068 0.094l-0.177 0.544h-0.572c-0.039 0-0.078 0.013-0.11 0.036-0.047 0.034-0.078 0.089-0.078 0.152s0.030 0.117 0.077 0.151l0.001 0z"></path>
</symbol>
<symbol id="telegram" viewBox="0 0 32 32">
<path fill="#41b4e6" style="fill: var(--color13, #41b4e6)" d="M16 32c8.836 0 16-7.164 16-16s-7.164-16-16-16-16 7.164-16 16 7.164 16 16 16z"></path>
<path fill="#0091c8" style="fill: var(--color14, #0091c8)" d="M32 16l-0.043-1.159-6.631-6.631-18.654 7.338 7.137 7.137 0.094 0.337 7.894 7.894c5.971-2.321 10.203-8.124 10.203-14.915z"></path>
<path fill="#fff" style="fill: var(--color2, #fff)" d="M14.446 18.332l7.231 5.459 3.65-15.581-18.654 7.338 5.676 1.881 10.359-6.948-8.262 7.853z"></path>
<path fill="#d2d2d7" style="fill: var(--color15, #d2d2d7)" d="M12.349 17.427l1.554 5.594 0.542-4.69 8.262-7.853-10.358 6.948z"></path>
<path fill="#b9b9be" style="fill: var(--color16, #b9b9be)" d="M16.796 20.106l-2.892 2.916 0.542-4.69 2.35 1.774z"></path>
</symbol>
<symbol id="telephone" viewBox="0 0 32 32">
<path d="M24.328 21.168c-1.045-1.032-2.35-1.032-3.389 0l-2.363 2.371c-0.213 0.219-0.392 0.267-0.653 0.12l-1.552-0.813c-2.298-1.445-4.222-3.302-5.926-5.394-0.846-1.038-1.598-2.15-2.125-3.403-0.042-0.070-0.067-0.155-0.067-0.245 0-0.154 0.073-0.292 0.186-0.38l0.001-0.001 2.344-2.338c1.085-1.093 1.085-2.371-0.006-3.469l-1.858-1.864-1.918-1.918c-1.045-1.019-2.35-1.019-3.389 0.006l-2.378 2.365c-0.7 0.659-1.154 1.573-1.211 2.593l-0 0.010c-0.126 1.658 0.28 3.222 0.851 4.747 1.171 3.157 2.957 5.96 5.12 8.53 2.923 3.475 6.413 6.226 10.494 8.21 1.838 0.893 3.742 1.578 5.813 1.691 1.426 0.080 2.664-0.28 3.656-1.392 0.678-0.758 1.445-1.451 2.165-2.178 1.066-1.078 1.072-2.384 0.013-3.45l-3.81-3.802zM23.058 15.861l2.458-0.419c-0.386-2.258-1.451-4.302-3.070-5.926-1.712-1.712-3.875-2.79-6.259-3.123l-0.346 2.47c1.845 0.259 3.523 1.093 4.848 2.418 1.251 1.251 2.070 2.837 2.371 4.581zM26.899 5.181c-2.715-2.733-6.294-4.604-10.293-5.17l-0.096-0.011-0.346 2.47c3.422 0.48 6.526 2.030 8.976 4.475 2.245 2.234 3.817 5.142 4.388 8.395l0.014 0.094 2.458-0.419c-0.646-3.742-2.411-7.138-5.101-9.835z"></path>
</symbol>
<symbol id="vk" viewBox="0 0 32 32">
<path fill="#4d76a1" style="fill: var(--color17, #4d76a1)" d="M16 32c8.836 0 16-7.164 16-16s-7.164-16-16-16-16 7.164-16 16 7.164 16 16 16z"></path>
<path fill="#fff" style="fill: var(--color2, #fff)" d="M15.395 23.018h1.256s0.38-0.042 0.573-0.25c0.179-0.192 0.172-0.552 0.172-0.552s-0.024-1.685 0.758-1.933c0.771-0.244 1.761 1.629 2.81 2.348 0.793 0.545 1.396 0.426 1.396 0.426l2.806-0.039s1.468-0.090 0.772-1.245c-0.057-0.094-0.405-0.854-2.087-2.413-1.759-1.633-1.524-1.368 0.596-4.193 1.291-1.72 1.806-2.771 1.645-3.22-0.153-0.428-1.103-0.316-1.103-0.316l-3.159 0.020s-0.234-0.032-0.408 0.072-0.279 0.339-0.279 0.339-0.5 1.331-1.166 2.463c-1.407 2.389-1.97 2.515-2.199 2.367-0.535-0.345-0.402-1.388-0.402-2.13 0-2.315 0.351-3.279-0.684-3.53-0.343-0.083-0.596-0.138-1.474-0.147-1.127-0.012-2.081 0.003-2.622 0.268-0.36 0.175-0.637 0.568-0.468 0.59 0.209 0.028 0.682 0.128 0.932 0.469 0.323 0.44 0.312 1.429 0.312 1.429s0.185 2.726-0.435 3.063c-0.426 0.232-1.010-0.242-2.264-2.409-0.642-1.11-1.128-2.337-1.128-2.337s-0.094-0.23-0.26-0.352c-0.203-0.149-0.486-0.196-0.486-0.196l-3.001 0.020s-0.45 0.012-0.616 0.209c-0.147 0.174-0.012 0.535-0.012 0.535s2.35 5.498 5.011 8.269c2.44 2.54 5.21 2.374 5.21 2.374z"></path>
</symbol>
<symbol id="whatsapp" viewBox="0 0 32 32">
<path fill="#eceff1" style="fill: var(--color18, #eceff1)" d="M27.36 4.598c-3.040-2.939-7.040-4.598-11.3-4.598-12.226 0-19.904 13.247-13.798 23.785l-2.261 8.215 8.447-2.203c3.68 1.988 6.694 1.812 7.621 1.93 14.177 0 21.235-17.152 11.271-27.076l0.020-0.052z"></path>
<path fill="#4caf50" style="fill: var(--color19, #4caf50)" d="M16.090 29.002l-0.009-0.001h-0.021c-4.243 0-6.954-2.010-7.22-2.125l-4.999 1.299 1.34-4.86-0.319-0.5c-1.319-2.101-2.021-4.522-2.021-7.013 0-11.724 14.326-17.586 22.618-9.3 8.271 8.201 2.464 22.5-9.367 22.5z"></path>
<path fill="#fafafa" style="fill: var(--color20, #fafafa)" d="M23.343 19.076l-0.012 0.1-2.72-1.287c-0.817-0.303-0.587-0.048-2.156 1.749-0.234 0.26-0.465 0.279-0.862 0.1-0.4-0.199-1.684-0.62-3.204-1.98-1.184-1.060-1.979-2.361-2.213-2.761-0.39-0.675 0.427-0.771 1.171-2.179 0.133-0.279 0.065-0.5-0.033-0.699s-0.896-2.16-1.229-2.942c-0.32-0.779-0.65-0.681-0.896-0.681-0.768-0.066-1.329-0.057-1.824 0.459-2.153 2.365-1.61 4.805 0.231 7.401 3.618 4.736 5.547 5.609 9.072 6.818 0.951 0.303 1.82 0.26 2.507 0.161 0.766-0.122 2.356-0.961 2.688-1.901 0.34-0.94 0.34-1.721 0.24-1.9s-0.359-0.281-0.759-0.46z"></path>
</symbol>
</defs>
</svg>
